<!DOCTYPE svg PUBLIC "-//W3C//DTD SVG 1.1//EN" "http://www.w3.org/Graphics/SVG/1.1/DTD/svg11.dtd">
<!-- Uploaded to: SVG Repo, www.svgrepo.com, Transformed by: SVG Repo Mixer Tools -->
<svg height="800px" width="800px" version="1.1" id="Layer_1" xmlns="http://www.w3.org/2000/svg" xmlns:xlink="http://www.w3.org/1999/xlink" viewBox="0 0 512 512" xml:space="preserve" fill="#000000">
<g id="SVGRepo_bgCarrier" stroke-width="0"/>
<g id="SVGRepo_tracerCarrier" stroke-linecap="round" stroke-linejoin="round"/>
<g id="SVGRepo_iconCarrier"> <path style="fill:#E6E6E6;" d="M371.404,44.973l24.318,49.275l54.378,7.902c8.372,1.217,11.716,11.506,5.657,17.411l-39.348,38.355 l9.29,54.158c1.43,8.339-7.322,14.697-14.811,10.76l-48.637-25.571l-48.637,25.571c-7.489,3.937-16.241-2.422-14.811-10.76 l9.29-54.158l-39.348-38.355c-6.058-5.906-2.715-16.194,5.657-17.411l54.378-7.902l24.318-49.275 C356.841,37.387,367.659,37.387,371.404,44.973z"/> <path style="fill:#2e4f4f;" d="M387.448,421.817C223.828,421.821,90.184,288.18,90.184,124.559 c0-37.379,6.899-73.145,19.493-106.098c5.2-13.605-11.752-24.718-22.076-14.446c-54.108,53.835-87.6,128.368-87.6,210.725 C-0.001,379.031,132.968,512,297.259,512c82.357,0,156.891-33.493,210.725-87.599c10.272-10.324-0.841-27.276-14.446-22.076 C460.589,414.918,424.824,421.816,387.448,421.817z"/> <path style="fill:#D1D1D1;" d="M450.101,102.15l-48.526-7.052l-13.141,12.809c-6.985,6.808-10.172,16.618-8.524,26.232l0,0 c4.152,24.211-21.259,42.672-43.001,31.243l0,0c-8.634-4.538-18.948-4.538-27.582,0l-2.765,1.453l-7.759,45.238 c-1.43,8.339,7.322,14.697,14.811,10.76l48.637-25.571l48.637,25.571c7.489,3.937,16.241-2.422,14.811-10.76l-9.288-54.158 l39.348-38.355C461.815,113.655,458.472,103.367,450.101,102.15z"/> <path style="fill:#427451;" d="M428.849,418.944c-48.315,33.96-107.18,53.923-170.723,53.923 c-72.121,0-138.237-25.691-189.713-68.411C122.938,470.155,205.208,512,297.259,512c82.334,0,156.851-33.474,210.683-87.556 c10.287-10.335-0.703-27.365-14.323-22.156C473.03,410.16,451.343,415.81,428.849,418.944z"/> </g>
</svg>